<svg xmlns="http://www.w3.org/2000/svg" version="1.1" xmlns:xlink="http://www.w3.org/1999/xlink" xmlns:svgjs="http://svgjs.com/svgjs" width="240" height="240"><svg version="1.1" viewBox="0.0 0.0 240.0 240.0" fill="none" stroke="none" stroke-linecap="square" stroke-miterlimit="10" xmlns:xlink="http://www.w3.org/1999/xlink" xmlns="http://www.w3.org/2000/svg"><clipPath id="SvgjsClipPath1001"><path d="m0 0l240.0 0l0 240.0l-240.0 0l0 -240.0z" clip-rule="nonzero"></path></clipPath><g clip-path="url(#p.0)"><defs><radialGradient id="SvgjsRadialGradient1000" gradientUnits="userSpaceOnUse" gradientTransform="matrix(13.027111216245139 0.0 0.0 13.027111216245139 0.0 0.0)" spreadMethod="pad" cx="9.211558726109358" cy="9.211558726109358" fx="9.211558726109358" fy="9.211558726109358" r="13.027111053466797"><stop offset="0.0" stop-color="#6aa84f"></stop><stop offset="1.0" stop-color="#274e13"></stop></radialGradient></defs><path fill="url(#p.1)" d="m0 0l240.0 0l0 240.0l-240.0 0z" fill-rule="evenodd"></path><path fill="#ffffff" d="m108.7013 78.686104l0 44.054337c-8.315086 0 -15.028183 -0.7374115 -20.13929 -2.2122498c-5.111107 -1.500267 -8.849075 -3.7379456 -11.213921 -6.713043c-2.3648376 -2.9750977 -3.5472565 -7.399605 -3.5472565 -13.273514c0 -7.857315 2.8734055 -13.464233 8.620224 -16.820755c5.7722397 -3.356514 14.532326 -5.034775 26.280243 -5.034775zm21.397987 0c11.8242035 0 20.597 1.7545395 26.31839 5.2636337c5.7213745 3.5090866 8.582077 9.116005 8.582077 16.820747c0 7.9335938 -2.809845 13.578651 -8.42952 16.935173c-5.5942383 3.3565216 -14.417892 5.0347824 -26.470947 5.0347824l0 -44.054337zm-21.397987 -51.72094l0 36.273315c-18.613586 0 -32.561058 2.9623833 -41.842415 8.88715c-9.255936 5.8993454 -13.8839035 15.447624 -13.8839035 28.64486c0 12.663239 4.7423935 22.084381 14.2271805 28.263435c9.510223 6.1790466 23.343262 9.26857 41.499138 9.26857c0 11.061264 -1.0298538 19.363556 -3.0895538 24.906921c-2.0597 5.5178986 -5.4416733 9.497421 -10.145927 11.938522c-4.6788254 2.4411163 -11.442772 3.6616669 -20.291855 3.6616669l-22.427837 0l-4.69154 34.213623l4.4626846 0c4.1956825 0 8.086227 -1.6782532 11.671631 -5.034775c3.5854034 -3.3565216 6.2553787 -7.9335938 8.009941 -13.731216l3.7761154 0c13.426193 0 23.966255 -1.7926941 31.620201 -5.378067c7.6793747 -3.585373 13.286339 -9.344864 16.820885 -17.278458c3.5599747 -7.9335938 5.4543915 -19.033005 5.683243 -33.298218c18.003296 0 31.785492 -3.1785278 41.346558 -9.535568c9.586502 -6.382477 14.379761 -15.7146225 14.379761 -27.996437c0 -13.044662 -4.678833 -22.554802 -14.0364685 -28.530434c-9.33223 -6.001045 -23.228836 -9.001575 -41.68985 -9.001575l0 -36.273315z" fill-rule="evenodd"></path></g></svg><style>@media (prefers-color-scheme: light) { :root { filter: none; } }
@media (prefers-color-scheme: dark) { :root { filter: contrast(1) brightness(1.3); } }
</style></svg>