<?xml version="1.0" standalone="no"?>
<!DOCTYPE svg PUBLIC "-//W3C//DTD SVG 20010904//EN"
 "http://www.w3.org/TR/2001/REC-SVG-20010904/DTD/svg10.dtd">
<svg version="1.0" xmlns="http://www.w3.org/2000/svg"
 width="700.000000pt" height="700.000000pt" viewBox="0 0 700.000000 700.000000"
 preserveAspectRatio="xMidYMid meet">
<metadata>
Created by potrace 1.14, written by Peter Selinger 2001-2017
</metadata>
<g transform="translate(0.000000,700.000000) scale(0.100000,-0.100000)"
fill="#000000" stroke="none">
<path d="M0 3500 l0 -3500 3500 0 3500 0 0 3500 0 3500 -3500 0 -3500 0 0
-3500z m3800 2185 l0 -525 38 0 c90 0 370 -21 474 -35 222 -31 429 -90 583
-168 269 -135 417 -313 492 -592 24 -91 26 -117 27 -290 1 -166 -2 -201 -22
-279 -117 -462 -524 -737 -1197 -810 -77 -8 -197 -18 -267 -21 l-126 -7 -6
-86 c-29 -429 -61 -611 -146 -831 -89 -231 -268 -429 -485 -538 -127 -64 -282
-109 -471 -138 -115 -17 -376 -35 -506 -35 -64 0 -88 -3 -88 -12 -1 -29 -72
-183 -114 -246 -66 -100 -173 -197 -265 -241 -73 -34 -82 -36 -200 -40 l-123
-3 6 28 c3 16 33 232 66 479 33 248 63 460 65 472 l5 21 462 5 c421 4 471 6
553 24 188 43 292 98 390 205 136 148 193 343 216 735 7 106 10 195 8 197 -2
2 -92 9 -199 15 -461 27 -777 112 -1026 277 -128 85 -252 229 -310 360 -145
328 -112 796 75 1061 170 240 465 387 911 453 122 18 399 40 508 40 l42 0 0
525 0 525 315 0 315 0 0 -525z"/>
<path d="M2881 4689 c-282 -30 -491 -111 -598 -234 -89 -100 -124 -211 -124
-395 0 -244 60 -378 210 -475 154 -99 336 -142 684 -160 l117 -6 0 640 0 641
-102 -1 c-57 -1 -141 -6 -187 -10z"/>
<path d="M3800 4062 c0 -353 3 -642 8 -642 4 0 79 5 167 10 497 32 726 154
811 435 29 93 26 317 -5 405 -42 120 -99 196 -198 264 -136 92 -365 151 -640
163 l-143 6 0 -641z"/>
</g>
</svg>
